<svg xmlns="http://www.w3.org/2000/svg" viewBox="0 0 630 630">
  <rect width="630" height="630" fill="#f7df1e"/>
  <path d="m423.2 492.19c12.69 20.72 29.2 35.95 58.4 35.95 24.53 0 40.2-12.26 40.2-29.2 0-20.3-16.1-27.49-43.1-39.3l-14.8-6.35c-42.72-18.2-71.1-41-71.1-89.2 0-44.9 33.8-78.2 86.6-78.2 37.2 0 64.7 13.1 84.2 47.4l-46.1 29.6c-10.15-18.2-21.1-25.37-38.1-25.37-17.35 0-28.3 11-28.3 25.37 0 17.76 11 24.96 36.4 35.95l14.8 6.34c50.3 21.57 78.7 43.56 78.7 93 0 53.3-41.8 82.5-89.8 82.5-58.4 0-87.2-28.76-103.1-55.82l45.2-29.07zM242.4 201.23h52.9v284c0 14.8-1.27 300 0s300 12.3 300 0.85 24.1 4.65 31.7c8.04 15.66 8.04 31.3 0 53.7-18.19 33-65.6 33-149 13.52-205.8h-48.2v-214.6z" fill="#000"/>
</svg>
